# xmcd
#
# Track frame offsets:
#	150
#	14855
#	30615
#	44855
#	60247
#	74550
#	89030
#	110707
#	126312
#	140475
#	155102
#	172560
#	184800
#	203107
#	215255
#	229375
#	241510
#	259120
#	277807
#
# Disc length: 3894 seconds
# Revision: 0
# Processed by: cddbd v1.5.2PL0 Copyright (c) Steve Scherf et al.
# Submitted via: dBpowerAMP V12.0
#
DISCID=1d0f3413
DTITLE=Various Artist - TM Century GoldDisc CX6
DYEAR=1900
DGENRE=Country Christmas
TTITLE0=Michael Martin Murphey - The Christmas Trail
TTITLE1=Reba McEntire - The Christmas Song (Chestnuts)
TTITLE2=Sawyer Brown - Please Come Home For Christmas
TTITLE3=Alan Jackson - I Only Want You For Christmas
TTITLE4=Ricky Van Shelton - Silver Bells
TTITLE5=The Bellamy Brothers - It's So Close To Christmas
TTITLE6=Paul Overstreet - Merry Christmas, Mary
TTITLE7=Steve Wariner - On Christmas Morning
TTITLE8=The Forester Sisters - I'll Be Home For Christmas
TTITLE9=Michael Martin Murphey - Christmas Cowboy Style
TTITLE10=Restless Heart - The Little Drummer Boy
TTITLE11=Clint Black - 'Til Santa's Gone (I Just Can't Wait)
TTITLE12=The Judds - Oh Holy Night
TTITLE13=Vern Gosdin - Joy To The World
TTITLE14=Mike Reid - O Come, O Come Emmanuel
TTITLE15=Dolly Parton - O Little Town Of Bethlehem
TTITLE16=Skip Ewing - Silent Night
TTITLE17=Tanya Tucker - What Child Is This
TTITLE18=Don Williams - O Come All Ye Faithful
EXTD=
EXTT0=
EXTT1=
EXTT2=
EXTT3=
EXTT4=
EXTT5=
EXTT6=
EXTT7=
EXTT8=
EXTT9=
EXTT10=
EXTT11=
EXTT12=
EXTT13=
EXTT14=
EXTT15=
EXTT16=
EXTT17=
EXTT18=
PLAYORDER=
